<svg xmlns="http://www.w3.org/2000/svg" xmlns:xlink="http://www.w3.org/1999/xlink" width="1200" zoomAndPan="magnify" viewBox="0 0 900 749.999995" height="1000" preserveAspectRatio="xMidYMid meet" version="1.0"><defs><g/></defs><g fill="#ff1616" fill-opacity="1"><g transform="translate(190.30926, 434.46329)"><g><path d="M 27.4375 -32.113281 C 18.550781 -14.496094 12.160156 -12.472656 15.589844 -34.917969 C 15.746094 -36.320312 15.746094 -37.414062 15.746094 -38.660156 C 15.898438 -40.6875 15.898438 -42.710938 16.210938 -44.582031 C 16.835938 -48.324219 17.304688 -52.066406 18.082031 -55.652344 C 18.863281 -59.859375 19.640625 -64.070312 20.578125 -68.277344 C 21.042969 -71.082031 21.355469 -73.578125 20.421875 -75.914062 C 20.109375 -76.382812 19.953125 -77.007812 19.953125 -77.628906 C 19.796875 -78.878906 19.019531 -79.5 17.613281 -79.34375 C 16.054688 -79.34375 14.496094 -79.035156 12.9375 -78.722656 C 12.78125 -78.410156 12.78125 -78.097656 12.78125 -77.941406 C 12.9375 -74.667969 12.316406 -71.238281 11.535156 -67.652344 C 10.601562 -63.445312 10.132812 -59.082031 8.730469 -54.871094 C 5.921875 -46.765625 3.898438 -38.660156 1.558594 -30.554688 C 0.46875 -26.1875 -1.089844 -21.667969 -2.339844 -16.992188 C -3.585938 -12.160156 -3.585938 -7.484375 -2.804688 -2.960938 C -2.648438 -2.027344 -2.027344 -1.089844 -1.246094 -0.625 C 0.15625 0.46875 1.871094 0.78125 4.054688 0.625 L 11.691406 0.3125 L 12.9375 0.3125 C 16.992188 -0.933594 20.734375 -2.339844 24.164062 -5.144531 C 25.097656 -5.769531 25.875 -6.703125 26.96875 -7.484375 C 39.28125 -22.757812 38.035156 -19.175781 38.660156 -4.675781 C 38.972656 -3.742188 39.4375 -2.648438 40.21875 -1.871094 C 41.777344 0.15625 44.425781 1.246094 46.765625 2.339844 C 47.855469 2.804688 49.414062 2.960938 50.820312 2.804688 C 51.285156 2.648438 51.753906 2.648438 52.222656 2.648438 C 55.183594 2.960938 57.832031 1.402344 59.703125 -1.089844 C 62.820312 -4.832031 65.9375 -8.730469 68.589844 -12.472656 C 70.925781 -15.746094 72.796875 -19.019531 74.824219 -22.292969 L 77.785156 -27.28125 C 78.097656 -28.058594 78.566406 -28.839844 78.722656 -29.617188 C 79.035156 -31.019531 80.125 -32.269531 81.058594 -33.203125 C 82.308594 -34.292969 82.617188 -35.074219 82.929688 -36.320312 C 83.242188 -37.566406 83.242188 -39.128906 85.113281 -40.0625 C 85.269531 -40.21875 85.582031 -40.6875 85.582031 -40.996094 C 86.828125 -44.425781 88.542969 -47.855469 88.855469 -51.285156 C 88.855469 -51.597656 89.320312 -51.910156 89.632812 -52.378906 L 90.414062 -49.414062 C 91.347656 -51.910156 91.503906 -53.9375 92.75 -55.960938 L 93.21875 -57.054688 C 93.53125 -58.769531 94.308594 -60.484375 94.777344 -62.199219 C 95.089844 -63.445312 95.089844 -64.847656 95.089844 -66.09375 C 95.246094 -66.875 95.246094 -67.808594 95.246094 -68.746094 C 95.246094 -69.835938 95.402344 -70.925781 95.089844 -71.863281 C 95.089844 -72.640625 94.464844 -73.109375 95.246094 -74.203125 C 95.402344 -74.511719 95.246094 -74.824219 95.089844 -75.136719 C 94.777344 -75.605469 94.933594 -76.070312 95.089844 -76.695312 C 95.402344 -77.320312 95.246094 -77.941406 95.558594 -78.566406 C 95.871094 -79.8125 94.933594 -80.59375 95.089844 -81.683594 C 95.089844 -82.773438 94.777344 -83.554688 94.15625 -84.332031 C 93.6875 -84.800781 93.53125 -85.269531 93.6875 -86.046875 C 94.15625 -87.453125 93.84375 -88.699219 92.90625 -89.167969 C 91.816406 -89.789062 91.660156 -90.726562 91.347656 -91.816406 C 91.191406 -92.285156 91.191406 -92.90625 90.726562 -93.0625 C 89.632812 -93.6875 89.011719 -94.464844 88.386719 -95.402344 C 87.917969 -96.179688 87.140625 -97.117188 86.984375 -98.050781 C 86.828125 -98.988281 86.515625 -99.609375 85.738281 -99.921875 L 84.644531 -100.390625 C 83.554688 -101.480469 82.152344 -101.949219 80.75 -102.261719 C 78.722656 -103.039062 76.695312 -103.507812 74.667969 -104.285156 L 72.640625 -103.507812 L 71.863281 -101.949219 C 71.707031 -101.480469 71.550781 -100.859375 71.707031 -100.546875 C 72.019531 -99.453125 72.488281 -98.519531 72.953125 -97.429688 C 73.265625 -96.492188 73.734375 -95.558594 75.449219 -95.871094 C 76.539062 -96.179688 77.320312 -95.558594 77.785156 -94.933594 C 78.097656 -94 78.253906 -93.375 78.253906 -92.285156 L 78.566406 -84.332031 C 78.566406 -78.722656 77.941406 -73.109375 77.007812 -67.1875 C 76.382812 -62.355469 74.667969 -57.523438 73.109375 -52.535156 C 72.019531 -49.105469 70.460938 -45.363281 69.058594 -41.777344 L 66.25 -35.542969 C 60.640625 -22.449219 42.710938 7.484375 50.195312 -24.316406 C 50.820312 -28.683594 52.222656 -33.203125 53.78125 -37.878906 C 55.183594 -41.621094 56.742188 -45.675781 57.675781 -49.414062 C 57.988281 -50.820312 58.613281 -52.222656 59.546875 -53.78125 C 60.949219 -55.960938 61.261719 -58.457031 62.042969 -60.640625 C 62.199219 -60.949219 62.355469 -61.417969 62.042969 -61.574219 C 61.417969 -61.886719 61.886719 -62.511719 61.886719 -63.289062 C 62.042969 -63.914062 62.355469 -65.003906 61.886719 -65.472656 C 61.261719 -66.25 60.796875 -66.875 60.949219 -67.964844 C 60.949219 -69.679688 59.546875 -69.992188 58.144531 -70.304688 C 56.898438 -70.617188 55.652344 -71.238281 54.246094 -71.394531 C 52.535156 -71.550781 51.128906 -72.332031 49.105469 -71.707031 C 48.011719 -71.394531 46.609375 -70.925781 46.140625 -70.148438 C 44.894531 -68.433594 43.804688 -66.5625 43.335938 -64.691406 C 42.554688 -60.949219 40.84375 -57.367188 39.28125 -53.78125 C 37.566406 -49.414062 35.386719 -45.207031 33.203125 -40.84375 C 32.425781 -39.128906 31.332031 -37.414062 30.554688 -35.542969 C 30.242188 -35.074219 29.929688 -34.605469 29.460938 -34.292969 C 28.527344 -33.828125 28.058594 -33.046875 27.4375 -32.113281 Z M 79.035156 -68.277344 C 78.097656 -62.199219 77.007812 -56.273438 74.511719 -50.195312 L 73.890625 -50.195312 C 74.511719 -52.222656 74.824219 -54.09375 75.449219 -56.117188 C 76.070312 -58.144531 76.539062 -60.328125 77.320312 -62.199219 C 77.941406 -64.222656 77.941406 -66.25 79.035156 -68.277344 Z M 81.058594 -84.023438 L 81.214844 -84.023438 C 81.214844 -83.242188 81.371094 -82.464844 81.371094 -81.683594 C 81.371094 -80.90625 81.214844 -79.96875 81.214844 -79.191406 C 81.214844 -78.253906 81.527344 -77.628906 80.75 -76.695312 C 80.59375 -76.695312 80.28125 -76.695312 80.125 -76.539062 Z M 91.660156 -56.273438 C 91.347656 -58.457031 91.347656 -58.457031 92.128906 -59.082031 C 92.128906 -58.144531 91.972656 -57.054688 91.972656 -56.273438 Z M 91.660156 -56.273438 "/></g></g></g><g fill="#5ce1e6" fill-opacity="1"><g transform="translate(194.804213, 435.336852)"><g><path d="M 26.984375 -31.585938 C 18.246094 -14.257812 11.960938 -12.265625 15.332031 -34.34375 C 15.484375 -35.726562 15.484375 -36.796875 15.484375 -38.023438 C 15.640625 -40.019531 15.640625 -42.011719 15.945312 -43.851562 C 16.558594 -47.53125 17.019531 -51.210938 17.785156 -54.738281 C 18.550781 -58.878906 19.320312 -63.015625 20.238281 -67.15625 C 20.699219 -69.917969 21.003906 -72.371094 20.085938 -74.671875 C 19.777344 -75.128906 19.625 -75.742188 19.625 -76.355469 C 19.472656 -77.582031 18.707031 -78.195312 17.324219 -78.042969 C 15.792969 -78.042969 14.257812 -77.738281 12.726562 -77.429688 C 12.574219 -77.125 12.574219 -76.816406 12.574219 -76.664062 C 12.726562 -73.445312 12.113281 -70.070312 11.347656 -66.542969 C 10.425781 -62.402344 9.964844 -58.109375 8.585938 -53.972656 C 5.828125 -46 3.832031 -38.023438 1.535156 -30.050781 C 0.460938 -25.757812 -1.074219 -21.3125 -2.300781 -16.710938 C -3.527344 -11.960938 -3.527344 -7.359375 -2.761719 -2.914062 C -2.605469 -1.992188 -1.992188 -1.074219 -1.226562 -0.613281 C 0.152344 0.460938 1.839844 0.765625 3.988281 0.613281 L 11.5 0.308594 L 12.726562 0.308594 C 16.710938 -0.921875 20.390625 -2.300781 23.765625 -5.058594 C 24.6875 -5.671875 25.453125 -6.59375 26.527344 -7.359375 C 38.636719 -22.386719 37.410156 -18.859375 38.023438 -4.601562 C 38.332031 -3.679688 38.792969 -2.605469 39.558594 -1.839844 C 41.089844 0.152344 43.699219 1.226562 46 2.300781 C 47.070312 2.761719 48.605469 2.914062 49.984375 2.761719 C 50.445312 2.605469 50.90625 2.605469 51.363281 2.605469 C 54.277344 2.914062 56.882812 1.378906 58.722656 -1.074219 C 61.789062 -4.753906 64.855469 -8.585938 67.464844 -12.265625 C 69.765625 -15.484375 71.605469 -18.707031 73.597656 -21.925781 L 76.511719 -26.832031 C 76.816406 -27.597656 77.277344 -28.367188 77.429688 -29.132812 C 77.738281 -30.511719 78.808594 -31.738281 79.730469 -32.660156 C 80.957031 -33.730469 81.261719 -34.5 81.570312 -35.726562 C 81.875 -36.953125 81.875 -38.484375 83.714844 -39.40625 C 83.871094 -39.558594 84.175781 -40.019531 84.175781 -40.324219 C 85.402344 -43.699219 87.089844 -47.070312 87.398438 -50.445312 C 87.398438 -50.75 87.855469 -51.058594 88.164062 -51.519531 L 88.929688 -48.605469 C 89.851562 -51.058594 90.003906 -53.050781 91.230469 -55.042969 L 91.691406 -56.117188 C 91.996094 -57.804688 92.761719 -59.492188 93.222656 -61.175781 C 93.53125 -62.402344 93.53125 -63.785156 93.53125 -65.011719 C 93.683594 -65.777344 93.683594 -66.699219 93.683594 -67.617188 C 93.683594 -68.691406 93.835938 -69.765625 93.53125 -70.683594 C 93.53125 -71.449219 92.917969 -71.910156 93.683594 -72.984375 C 93.835938 -73.289062 93.683594 -73.597656 93.53125 -73.902344 C 93.222656 -74.363281 93.375 -74.824219 93.53125 -75.4375 C 93.835938 -76.050781 93.683594 -76.664062 93.988281 -77.277344 C 94.296875 -78.503906 93.375 -79.269531 93.53125 -80.34375 C 93.53125 -81.417969 93.222656 -82.183594 92.609375 -82.949219 C 92.148438 -83.410156 91.996094 -83.871094 92.148438 -84.636719 C 92.609375 -86.015625 92.304688 -87.242188 91.382812 -87.703125 C 90.308594 -88.316406 90.15625 -89.238281 89.851562 -90.308594 C 89.695312 -90.769531 89.695312 -91.382812 89.238281 -91.535156 C 88.164062 -92.148438 87.550781 -92.917969 86.9375 -93.835938 C 86.476562 -94.601562 85.710938 -95.523438 85.554688 -96.441406 C 85.402344 -97.363281 85.097656 -97.976562 84.328125 -98.28125 L 83.257812 -98.742188 C 82.183594 -99.816406 80.804688 -100.277344 79.421875 -100.582031 C 77.429688 -101.347656 75.4375 -101.808594 73.445312 -102.574219 L 71.449219 -101.808594 L 70.683594 -100.277344 C 70.53125 -99.816406 70.378906 -99.203125 70.53125 -98.894531 C 70.835938 -97.824219 71.296875 -96.902344 71.757812 -95.828125 C 72.0625 -94.910156 72.523438 -93.988281 74.210938 -94.296875 C 75.285156 -94.601562 76.050781 -93.988281 76.511719 -93.375 C 76.816406 -92.457031 76.96875 -91.84375 76.96875 -90.769531 L 77.277344 -82.949219 C 77.277344 -77.429688 76.664062 -71.910156 75.742188 -66.085938 C 75.128906 -61.332031 73.445312 -56.578125 71.910156 -51.671875 C 70.835938 -48.296875 69.304688 -44.617188 67.925781 -41.089844 L 65.164062 -34.957031 C 59.644531 -22.078125 42.011719 7.359375 49.371094 -23.917969 C 49.984375 -28.210938 51.363281 -32.660156 52.898438 -37.257812 C 54.277344 -40.9375 55.8125 -44.925781 56.730469 -48.605469 C 57.039062 -49.984375 57.652344 -51.363281 58.570312 -52.898438 C 59.949219 -55.042969 60.257812 -57.496094 61.023438 -59.644531 C 61.175781 -59.949219 61.332031 -60.410156 61.023438 -60.5625 C 60.410156 -60.871094 60.871094 -61.484375 60.871094 -62.25 C 61.023438 -62.863281 61.332031 -63.9375 60.871094 -64.398438 C 60.257812 -65.164062 59.796875 -65.777344 59.949219 -66.851562 C 59.949219 -68.539062 58.570312 -68.84375 57.191406 -69.152344 C 55.964844 -69.457031 54.738281 -70.070312 53.359375 -70.222656 C 51.671875 -70.378906 50.292969 -71.144531 48.296875 -70.53125 C 47.226562 -70.222656 45.84375 -69.765625 45.386719 -68.996094 C 44.160156 -67.3125 43.085938 -65.472656 42.625 -63.628906 C 41.859375 -59.949219 40.171875 -56.425781 38.636719 -52.898438 C 36.953125 -48.605469 34.804688 -44.464844 32.660156 -40.171875 C 31.890625 -38.484375 30.820312 -36.796875 30.050781 -34.957031 C 29.746094 -34.5 29.4375 -34.039062 28.980469 -33.730469 C 28.058594 -33.273438 27.597656 -32.503906 26.984375 -31.585938 Z M 77.738281 -67.15625 C 76.816406 -61.175781 75.742188 -55.351562 73.289062 -49.371094 L 72.675781 -49.371094 C 73.289062 -51.363281 73.597656 -53.203125 74.210938 -55.199219 C 74.824219 -57.191406 75.285156 -59.335938 76.050781 -61.175781 C 76.664062 -63.171875 76.664062 -65.164062 77.738281 -67.15625 Z M 79.730469 -82.644531 L 79.882812 -82.644531 C 79.882812 -81.875 80.035156 -81.109375 80.035156 -80.34375 C 80.035156 -79.578125 79.882812 -78.65625 79.882812 -77.890625 C 79.882812 -76.96875 80.191406 -76.355469 79.421875 -75.4375 C 79.269531 -75.4375 78.964844 -75.4375 78.808594 -75.285156 Z M 90.15625 -55.351562 C 89.851562 -57.496094 89.851562 -57.496094 90.617188 -58.109375 C 90.617188 -57.191406 90.464844 -56.117188 90.464844 -55.351562 Z M 90.15625 -55.351562 "/></g></g></g><g fill="#38b6ff" fill-opacity="1"><g transform="translate(200.122646, 435.812446)"><g><path d="M 25.445312 -29.78125 C 17.203125 -13.445312 11.277344 -11.566406 14.457031 -32.386719 C 14.601562 -33.6875 14.601562 -34.699219 14.601562 -35.855469 C 14.746094 -37.734375 14.746094 -39.613281 15.035156 -41.347656 C 15.613281 -44.820312 16.046875 -48.289062 16.769531 -51.613281 C 17.492188 -55.519531 18.21875 -59.421875 19.085938 -63.324219 C 19.519531 -65.925781 19.808594 -68.242188 18.941406 -70.410156 C 18.652344 -70.84375 18.507812 -71.421875 18.507812 -72 C 18.363281 -73.15625 17.636719 -73.734375 16.335938 -73.589844 C 14.890625 -73.589844 13.445312 -73.300781 12 -73.011719 C 11.855469 -72.722656 11.855469 -72.433594 11.855469 -72.289062 C 12 -69.253906 11.421875 -66.070312 10.699219 -62.746094 C 9.832031 -58.84375 9.398438 -54.796875 8.097656 -50.890625 C 5.492188 -43.375 3.613281 -35.855469 1.445312 -28.335938 C 0.433594 -24.289062 -1.011719 -20.097656 -2.167969 -15.757812 C -3.324219 -11.277344 -3.324219 -6.941406 -2.601562 -2.746094 C -2.457031 -1.878906 -1.878906 -1.011719 -1.15625 -0.578125 C 0.144531 0.433594 1.734375 0.722656 3.757812 0.578125 L 10.84375 0.289062 L 12 0.289062 C 15.757812 -0.867188 19.230469 -2.167969 22.410156 -4.769531 C 23.277344 -5.347656 24 -6.21875 25.011719 -6.941406 C 36.433594 -21.109375 35.277344 -17.78125 35.855469 -4.335938 C 36.144531 -3.46875 36.578125 -2.457031 37.300781 -1.734375 C 38.746094 0.144531 41.203125 1.15625 43.375 2.167969 C 44.386719 2.601562 45.832031 2.746094 47.132812 2.601562 C 47.566406 2.457031 48 2.457031 48.433594 2.457031 C 51.179688 2.746094 53.636719 1.300781 55.375 -1.011719 C 58.265625 -4.480469 61.15625 -8.097656 63.613281 -11.566406 C 65.78125 -14.601562 67.519531 -17.636719 69.398438 -20.675781 L 72.144531 -25.300781 C 72.433594 -26.023438 72.867188 -26.746094 73.011719 -27.46875 C 73.300781 -28.769531 74.3125 -29.925781 75.179688 -30.796875 C 76.335938 -31.808594 76.625 -32.53125 76.914062 -33.6875 C 77.203125 -34.84375 77.203125 -36.289062 78.941406 -37.15625 C 79.085938 -37.300781 79.375 -37.734375 79.375 -38.023438 C 80.53125 -41.203125 82.121094 -44.386719 82.410156 -47.566406 C 82.410156 -47.855469 82.84375 -48.144531 83.132812 -48.578125 L 83.855469 -45.832031 C 84.722656 -48.144531 84.867188 -50.023438 86.023438 -51.902344 L 86.457031 -52.914062 C 86.746094 -54.507812 87.46875 -56.097656 87.902344 -57.6875 C 88.191406 -58.84375 88.191406 -60.144531 88.191406 -61.300781 C 88.335938 -62.023438 88.335938 -62.890625 88.335938 -63.757812 C 88.335938 -64.769531 88.480469 -65.78125 88.191406 -66.652344 C 88.191406 -67.375 87.613281 -67.808594 88.335938 -68.820312 C 88.480469 -69.109375 88.335938 -69.398438 88.191406 -69.6875 C 87.902344 -70.121094 88.046875 -70.554688 88.191406 -71.132812 C 88.480469 -71.710938 88.335938 -72.289062 88.625 -72.867188 C 88.914062 -74.023438 88.046875 -74.746094 88.191406 -75.757812 C 88.191406 -76.769531 87.902344 -77.492188 87.324219 -78.21875 C 86.890625 -78.652344 86.746094 -79.085938 86.890625 -79.808594 C 87.324219 -81.109375 87.035156 -82.265625 86.167969 -82.699219 C 85.15625 -83.277344 85.011719 -84.144531 84.722656 -85.15625 C 84.578125 -85.589844 84.578125 -86.167969 84.144531 -86.3125 C 83.132812 -86.890625 82.554688 -87.613281 81.976562 -88.480469 C 81.542969 -89.203125 80.820312 -90.070312 80.675781 -90.941406 C 80.53125 -91.808594 80.242188 -92.386719 79.519531 -92.675781 L 78.507812 -93.109375 C 77.492188 -94.121094 76.191406 -94.554688 74.890625 -94.84375 C 73.011719 -95.566406 71.132812 -96 69.253906 -96.722656 L 67.375 -96 L 66.652344 -94.554688 C 66.507812 -94.121094 66.363281 -93.542969 66.507812 -93.253906 C 66.796875 -92.242188 67.230469 -91.375 67.664062 -90.363281 C 67.953125 -89.492188 68.386719 -88.625 69.976562 -88.914062 C 70.988281 -89.203125 71.710938 -88.625 72.144531 -88.046875 C 72.433594 -87.179688 72.578125 -86.601562 72.578125 -85.589844 L 72.867188 -78.21875 C 72.867188 -73.011719 72.289062 -67.808594 71.421875 -62.3125 C 70.84375 -57.832031 69.253906 -53.347656 67.808594 -48.722656 C 66.796875 -45.542969 65.347656 -42.070312 64.046875 -38.746094 L 61.445312 -32.964844 C 56.242188 -20.820312 39.613281 6.941406 46.554688 -22.554688 C 47.132812 -26.601562 48.433594 -30.796875 49.878906 -35.132812 C 51.179688 -38.601562 52.625 -42.363281 53.492188 -45.832031 C 53.78125 -47.132812 54.363281 -48.433594 55.230469 -49.878906 C 56.53125 -51.902344 56.820312 -54.21875 57.542969 -56.242188 C 57.6875 -56.53125 57.832031 -56.964844 57.542969 -57.109375 C 56.964844 -57.398438 57.398438 -57.976562 57.398438 -58.699219 C 57.542969 -59.277344 57.832031 -60.289062 57.398438 -60.722656 C 56.820312 -61.445312 56.386719 -62.023438 56.53125 -63.035156 C 56.53125 -64.625 55.230469 -64.914062 53.925781 -65.203125 C 52.769531 -65.492188 51.613281 -66.070312 50.3125 -66.21875 C 48.722656 -66.363281 47.421875 -67.085938 45.542969 -66.507812 C 44.53125 -66.21875 43.230469 -65.78125 42.796875 -65.058594 C 41.636719 -63.46875 40.625 -61.734375 40.191406 -60 C 39.46875 -56.53125 37.878906 -53.203125 36.433594 -49.878906 C 34.84375 -45.832031 32.820312 -41.925781 30.796875 -37.878906 C 30.074219 -36.289062 29.058594 -34.699219 28.335938 -32.964844 C 28.046875 -32.53125 27.757812 -32.097656 27.324219 -31.808594 C 26.457031 -31.375 26.023438 -30.652344 25.445312 -29.78125 Z M 73.300781 -63.324219 C 72.433594 -57.6875 71.421875 -52.191406 69.109375 -46.554688 L 68.53125 -46.554688 C 69.109375 -48.433594 69.398438 -50.167969 69.976562 -52.046875 C 70.554688 -53.925781 70.988281 -55.953125 71.710938 -57.6875 C 72.289062 -59.566406 72.289062 -61.445312 73.300781 -63.324219 Z M 75.179688 -77.925781 L 75.324219 -77.925781 C 75.324219 -77.203125 75.46875 -76.480469 75.46875 -75.757812 C 75.46875 -75.035156 75.324219 -74.167969 75.324219 -73.445312 C 75.324219 -72.578125 75.613281 -72 74.890625 -71.132812 C 74.746094 -71.132812 74.457031 -71.132812 74.3125 -70.988281 Z M 85.011719 -52.191406 C 84.722656 -54.21875 84.722656 -54.21875 85.445312 -54.796875 C 85.445312 -53.925781 85.300781 -52.914062 85.300781 -52.191406 Z M 85.011719 -52.191406 "/></g></g></g><g fill="#38b6ff" fill-opacity="1"><g transform="translate(284.26387, 435.812446)"><g><path d="M 6.652344 -45.6875 C 6.21875 -44.820312 6.074219 -44.242188 6.21875 -43.664062 C 6.507812 -42.652344 6.074219 -42.070312 5.636719 -41.203125 C 5.636719 -41.203125 5.347656 -40.769531 5.347656 -40.480469 C 4.480469 -38.457031 1.878906 -35.277344 0.722656 -32.386719 C -1.011719 -29.492188 2.023438 -32.53125 2.023438 -32.53125 C 1.300781 -31.519531 1.15625 -30.652344 0.433594 -29.636719 C 0.289062 -29.492188 0.144531 -28.914062 0 -28.914062 C -1.011719 -28.769531 -0.722656 -28.046875 -1.011719 -27.902344 C -1.011719 -27.035156 -1.300781 -26.3125 -1.445312 -25.589844 C -2.023438 -24.433594 -1.734375 -21.109375 -2.167969 -19.375 C -2.167969 -18.652344 -2.167969 -17.636719 -1.878906 -16.769531 C -1.878906 -14.890625 -1.15625 -12.867188 -0.433594 -10.988281 C 0.867188 -9.542969 2.3125 -8.386719 3.757812 -7.808594 C 5.925781 -6.941406 7.808594 -4.914062 9.832031 -5.636719 C 16.191406 -3.179688 26.023438 -11.855469 27.46875 -13.734375 C 32.386719 -16.625 34.554688 -24.578125 37.589844 -30.074219 C 35.566406 -30.507812 37.15625 -32.53125 36.433594 -33.976562 C 36 -33.253906 36 -33.253906 36 -33.109375 C 35.277344 -30.796875 33.6875 -29.058594 32.386719 -27.179688 C 25.445312 -19.808594 29.78125 -18.21875 17.78125 -13.878906 C 16.914062 -13.734375 16.191406 -13.445312 15.46875 -14.023438 C 14.601562 -14.3125 13.878906 -14.890625 13.300781 -15.179688 C 12.867188 -15.757812 12.289062 -16.335938 12.144531 -17.347656 C 12 -18.652344 12.578125 -26.023438 12.578125 -27.46875 C 12.722656 -30.074219 12.722656 -29.492188 13.878906 -32.386719 C 14.023438 -32.675781 14.3125 -33.109375 14.3125 -33.542969 C 14.601562 -34.988281 12 -29.492188 12.578125 -31.230469 C 13.300781 -32.53125 13.878906 -34.265625 14.457031 -35.566406 L 15.179688 -37.734375 C 16.335938 -40.046875 17.347656 -41.78125 18.21875 -43.664062 C 18.652344 -45.109375 18.507812 -46.121094 17.925781 -46.84375 C 17.347656 -47.421875 15.902344 -48.144531 15.46875 -48.722656 C 14.023438 -49.589844 10.410156 -46.988281 8.820312 -46.699219 C 8.386719 -46.410156 8.097656 -46.265625 7.664062 -45.6875 L 7.519531 -45.542969 C 7.085938 -45.398438 6.941406 -45.542969 6.652344 -45.6875 Z M 21.6875 -62.457031 C 21.109375 -63.46875 20.386719 -64.191406 19.375 -64.625 C 18.796875 -64.769531 18.074219 -64.914062 17.492188 -65.203125 C 17.347656 -65.347656 17.203125 -65.203125 16.914062 -65.058594 C 16.625 -64.914062 16.335938 -64.914062 16.335938 -65.203125 C 16.191406 -65.347656 15.902344 -65.347656 15.613281 -65.203125 C 15.324219 -65.203125 15.035156 -64.914062 14.746094 -64.625 L 13.878906 -63.324219 C 13.445312 -62.457031 12.722656 -61.734375 12.722656 -60.867188 C 12.722656 -60.722656 12.289062 -60.433594 12.289062 -60.144531 C 11.855469 -59.421875 11.566406 -58.988281 11.277344 -58.265625 C 11.132812 -57.6875 10.84375 -57.253906 10.84375 -56.820312 L 10.410156 -56.242188 C 10.988281 -56.097656 11.421875 -56.097656 12 -56.097656 C 12.433594 -56.097656 12.722656 -56.097656 13.15625 -55.808594 C 13.734375 -55.519531 14.3125 -55.375 15.179688 -55.953125 C 15.46875 -56.242188 15.902344 -56.53125 16.191406 -56.386719 C 16.914062 -56.53125 18.074219 -57.109375 18.363281 -57.542969 L 19.808594 -59.277344 C 20.097656 -59.566406 20.097656 -59.855469 20.097656 -60 C 20.242188 -60.578125 20.53125 -60.867188 20.820312 -61.300781 C 21.109375 -61.589844 21.253906 -62.023438 21.6875 -62.457031 Z M 21.6875 -62.457031 "/></g></g></g><g fill="#38b6ff" fill-opacity="1"><g transform="translate(318.816693, 435.812446)"><g><path d="M 31.375 -36.578125 C 34.554688 -39.902344 33.976562 -32.964844 33.398438 -29.925781 C 33.398438 -28.046875 33.253906 -26.3125 33.109375 -24.433594 C 33.253906 -16.191406 36.289062 -11.132812 42.507812 -9.109375 C 44.964844 -8.242188 52.625 -8.53125 54.652344 -9.398438 L 56.386719 -9.976562 C 57.109375 -10.410156 57.976562 -10.699219 58.554688 -11.277344 C 59.855469 -12.433594 65.492188 -18.652344 66.652344 -19.953125 C 67.953125 -21.398438 69.398438 -24.433594 70.699219 -26.3125 C 71.132812 -27.035156 71.421875 -27.757812 71.566406 -28.480469 C 71.566406 -29.203125 71.710938 -29.78125 72.144531 -30.363281 C 72.578125 -31.375 72.433594 -30.21875 72.433594 -31.230469 C 72.289062 -32.097656 72.578125 -32.675781 72.433594 -33.542969 C 72.289062 -33.6875 72.289062 -33.976562 72.289062 -34.265625 C 71.710938 -33.6875 71.710938 -33.398438 71.421875 -32.964844 C 70.265625 -31.375 70.265625 -30.363281 69.109375 -28.625 C 68.53125 -27.902344 64.046875 -24.578125 63.613281 -24 C 61.589844 -21.398438 55.519531 -16.625 52.769531 -14.890625 C 51.902344 -14.601562 51.324219 -14.167969 50.601562 -13.878906 C 49.15625 -13.15625 44.386719 -12.144531 44.097656 -15.613281 C 43.808594 -18.21875 44.097656 -24.578125 44.964844 -27.613281 C 45.6875 -30.363281 45.976562 -31.953125 46.554688 -34.699219 C 47.132812 -36.867188 46.84375 -38.457031 46.554688 -40.625 C 46.554688 -41.492188 46.410156 -42.070312 45.976562 -42.796875 C 45.398438 -43.808594 44.675781 -44.675781 43.375 -44.964844 C 41.636719 -45.253906 39.902344 -45.109375 38.023438 -45.398438 L 36.578125 -45.398438 C 35.277344 -45.109375 34.265625 -44.53125 33.542969 -43.230469 L 30.796875 -40.335938 C 27.613281 -36.867188 26.023438 -35.855469 22.699219 -31.808594 C 19.953125 -28.625 19.664062 -28.191406 16.769531 -25.445312 C 14.890625 -24.433594 13.589844 -26.3125 15.46875 -29.347656 C 17.058594 -31.664062 16.480469 -31.230469 17.636719 -33.6875 C 20.242188 -39.179688 21.976562 -44.53125 22.121094 -49.878906 C 22.265625 -51.46875 22.265625 -52.914062 21.542969 -54.070312 L 19.375 -56.964844 C 19.230469 -57.253906 18.796875 -57.6875 18.652344 -57.6875 C 17.058594 -58.121094 15.757812 -58.988281 14.746094 -60.289062 C 14.457031 -60.722656 13.734375 -60.867188 13.011719 -60.433594 C 13.011719 -60 12.867188 -59.855469 12.867188 -59.421875 C 12.578125 -58.121094 12 -56.820312 11.277344 -55.519531 C 10.554688 -53.78125 9.542969 -52.046875 8.53125 -50.3125 C 6.941406 -47.566406 5.058594 -44.53125 3.46875 -41.492188 C 1.734375 -37.878906 0.144531 -34.265625 -1.300781 -30.652344 C -2.601562 -28.046875 -3.613281 -25.445312 -4.625 -22.699219 C -6.652344 -17.347656 -7.808594 -12 -8.964844 -6.796875 C -9.542969 -3.757812 -8.242188 -1.445312 -6.074219 -0.722656 C -5.203125 -0.578125 -4.191406 -0.578125 -3.179688 -0.289062 C -1.589844 -0.144531 0 -0.289062 1.589844 0.144531 C 2.023438 0.289062 3.179688 0.289062 3.902344 -0.289062 C 4.769531 -0.722656 5.347656 -1.011719 5.925781 -1.011719 C 6.652344 -1.011719 7.085938 -1.15625 7.808594 -1.878906 C 8.964844 -3.324219 11.132812 -12.578125 12.578125 -14.023438 C 12.722656 -14.457031 13.15625 -15.035156 13.734375 -15.46875 C 14.457031 -16.191406 15.035156 -17.203125 15.757812 -18.363281 C 16.480469 -19.664062 17.203125 -20.675781 18.21875 -21.6875 C 19.808594 -23.277344 21.398438 -25.011719 22.699219 -26.746094 C 24.289062 -29.058594 26.746094 -31.230469 28.625 -33.398438 C 29.492188 -34.410156 30.652344 -35.421875 31.375 -36.578125 Z M 31.375 -36.578125 "/></g></g></g><g fill="#38b6ff" fill-opacity="1"><g transform="translate(388.500673, 435.812446)"><g><path d="M 48.289062 1.878906 C 48.144531 2.023438 48 2.457031 48 2.601562 C 47.132812 2.457031 46.554688 1.878906 45.832031 1.445312 C 46.121094 1.011719 46.554688 1.15625 46.988281 1.011719 C 45.398438 -0.433594 43.953125 -1.734375 42.941406 -3.757812 C 42.507812 -4.191406 42.070312 -4.769531 42.21875 -5.636719 C 42.363281 -5.925781 42.070312 -6.507812 41.78125 -6.941406 C 41.636719 -7.519531 41.492188 -7.953125 40.914062 -8.386719 C 40.335938 -10.265625 39.757812 -12.144531 39.613281 -14.167969 C 39.46875 -15.035156 39.757812 -15.902344 39.324219 -16.769531 C 39.179688 -16.914062 39.179688 -17.058594 39.179688 -17.347656 L 39.179688 -21.109375 C 39.324219 -21.976562 39.46875 -22.988281 39.179688 -24 C 39.035156 -24.722656 39.179688 -25.445312 39.179688 -26.167969 C 39.46875 -26.457031 39.613281 -26.890625 39.46875 -27.179688 C 39.46875 -28.191406 39.757812 -29.058594 39.613281 -29.925781 C 40.046875 -31.230469 40.335938 -32.242188 40.480469 -33.398438 C 40.625 -34.554688 40.914062 -35.855469 41.203125 -37.011719 C 41.347656 -37.589844 41.492188 -38.167969 42.070312 -38.601562 C 42.796875 -40.046875 42.070312 -40.480469 43.230469 -41.925781 C 44.53125 -43.519531 45.976562 -45.253906 46.554688 -47.277344 C 46.988281 -48.144531 47.710938 -48.867188 48.433594 -49.589844 C 49.300781 -50.167969 50.167969 -51.035156 50.601562 -52.191406 C 51.035156 -53.636719 51.757812 -54.941406 52.914062 -56.097656 C 53.636719 -57.109375 54.21875 -58.410156 54.652344 -59.710938 C 54.796875 -60.578125 55.085938 -61.300781 55.375 -62.167969 C 55.953125 -63.324219 56.386719 -64.480469 56.820312 -65.636719 C 57.398438 -66.941406 57.976562 -68.097656 58.699219 -69.109375 C 59.132812 -69.832031 59.421875 -70.699219 59.566406 -71.566406 C 59.710938 -71.855469 59.566406 -72.144531 59.710938 -72.433594 C 60.433594 -73.589844 60.433594 -74.890625 60.433594 -76.046875 L 60.867188 -79.230469 C 61.15625 -80.820312 60.867188 -82.410156 60.722656 -84 C 60.578125 -84.433594 60.433594 -84.867188 60.144531 -85.15625 C 58.699219 -86.023438 57.832031 -87.179688 56.53125 -87.902344 C 54.652344 -88.914062 52.625 -89.203125 50.890625 -87.902344 C 49.734375 -87.035156 48.578125 -86.3125 47.277344 -85.589844 C 46.699219 -85.15625 45.976562 -84.722656 45.542969 -84.289062 C 44.386719 -83.132812 43.085938 -81.976562 41.78125 -80.964844 C 40.480469 -79.664062 39.46875 -78.070312 38.457031 -76.480469 C 37.445312 -74.3125 36.289062 -72.144531 35.132812 -70.121094 C 34.84375 -69.253906 34.699219 -68.53125 34.265625 -67.808594 C 33.832031 -66.507812 33.253906 -65.203125 32.675781 -63.902344 C 32.386719 -62.890625 32.097656 -61.878906 31.664062 -61.011719 L 30.941406 -59.132812 C 28.769531 -55.085938 29.78125 -43.664062 24.578125 -50.746094 L 22.121094 -51.757812 C 21.6875 -51.902344 21.398438 -52.046875 20.964844 -52.046875 C 20.097656 -51.902344 19.085938 -51.902344 18.363281 -51.46875 C 14.3125 -50.167969 10.699219 -48 7.953125 -44.964844 C 5.203125 -42.21875 3.179688 -38.890625 1.300781 -35.710938 C -0.433594 -32.675781 -1.15625 -29.203125 -2.023438 -25.734375 C -2.457031 -24 -2.457031 -21.976562 -2.457031 -20.097656 C -2.601562 -19.664062 -2.457031 -19.085938 -2.457031 -18.507812 C -2.3125 -17.925781 -2.167969 -17.492188 -2.167969 -16.914062 C -2.3125 -15.179688 -1.878906 -13.445312 -1.011719 -11.855469 C 0.144531 -9.253906 1.878906 -7.230469 4.480469 -5.925781 C 6.21875 -4.914062 8.242188 -4.335938 9.976562 -3.902344 C 11.277344 -3.613281 12.867188 -3.902344 13.734375 -4.769531 C 14.3125 -5.347656 14.890625 -5.492188 15.613281 -5.78125 C 18.074219 -6.507812 19.519531 -8.242188 20.097656 -10.84375 C 20.386719 -12 20.820312 -13.011719 21.542969 -13.878906 L 22.410156 -14.746094 C 22.410156 -14.457031 22.699219 -14.3125 22.84375 -14.023438 C 22.699219 -13.300781 22.84375 -12.433594 22.988281 -11.710938 C 23.132812 -10.265625 23.421875 -8.964844 23.710938 -7.664062 C 23.855469 -6.507812 24.433594 -5.347656 24.289062 -4.335938 C 24.289062 -3.46875 24.289062 -3.035156 24.867188 -2.3125 C 25.15625 -2.167969 25.15625 -1.878906 25.300781 -1.589844 C 25.589844 0.289062 26.601562 1.878906 27.324219 3.46875 C 28.625 5.636719 30.074219 7.808594 32.242188 9.398438 C 34.699219 12.289062 34.84375 11.710938 37.734375 12.867188 C 39.179688 13.445312 40.335938 13.589844 41.636719 13.589844 C 41.925781 13.300781 42.070312 12.867188 42.21875 12.722656 C 43.953125 12 45.253906 10.988281 46.988281 10.121094 C 48 9.398438 49.300781 8.675781 50.023438 7.808594 C 51.179688 7.085938 52.046875 6.074219 52.914062 5.058594 L 54.652344 2.601562 C 55.375 1.445312 55.953125 0.289062 56.386719 -1.011719 C 56.53125 -1.589844 56.820312 -2.167969 57.253906 -2.601562 L 59.277344 -5.347656 C 59.277344 -5.492188 59.421875 -5.636719 59.710938 -5.78125 C 60.144531 -7.953125 59.855469 -8.242188 62.457031 -11.710938 L 63.757812 -13.300781 C 61.878906 -15.179688 63.179688 -13.15625 63.757812 -15.46875 C 65.058594 -18.363281 66.941406 -19.085938 68.820312 -21.976562 C 71.132812 -21.253906 69.542969 -24.578125 70.84375 -25.445312 C 71.421875 -26.167969 72 -27.035156 71.132812 -28.191406 C 70.84375 -27.902344 73.589844 -30.507812 72.578125 -30.507812 C 72.578125 -33.109375 74.890625 -32.386719 73.15625 -33.6875 C 70.410156 -35.710938 70.988281 -33.542969 69.253906 -30.507812 C 66.363281 -25.589844 64.046875 -20.53125 60.578125 -15.757812 C 57.976562 -10.699219 58.121094 -8.820312 56.675781 -6.652344 C 55.953125 -5.636719 55.375 -4.625 54.796875 -3.46875 C 53.203125 -1.011719 55.375 -3.179688 53.636719 -0.867188 C 53.347656 -0.433594 52.914062 -0.144531 52.625 0.144531 C 51.179688 0.722656 51.035156 1.445312 48.144531 1.878906 Z M 45.976562 -49.878906 C 39.902344 -43.519531 43.230469 -52.914062 44.242188 -57.6875 C 44.675781 -61.15625 46.410156 -63.902344 47.277344 -67.375 C 47.421875 -68.386719 47.855469 -69.398438 48.289062 -70.410156 C 48.578125 -71.277344 48.722656 -72 48.578125 -72.867188 C 48.578125 -73.589844 48.867188 -74.023438 49.589844 -74.457031 C 50.3125 -75.179688 51.035156 -76.046875 51.46875 -77.203125 C 52.046875 -78.070312 52.480469 -78.941406 52.335938 -79.953125 C 52.335938 -80.386719 52.625 -80.820312 52.769531 -81.253906 C 53.492188 -82.265625 54.507812 -83.277344 54.941406 -84.578125 C 55.085938 -85.011719 55.519531 -85.15625 55.808594 -85.445312 C 56.820312 -86.023438 57.398438 -85.878906 57.976562 -84.578125 C 58.121094 -83.710938 58.265625 -82.84375 58.265625 -81.976562 C 58.121094 -78.21875 57.976562 -74.457031 56.53125 -71.132812 C 56.242188 -70.554688 56.242188 -69.832031 56.242188 -69.253906 C 56.242188 -68.386719 56.097656 -67.808594 55.808594 -67.085938 C 54.507812 -64.625 53.347656 -62.3125 52.335938 -59.855469 C 51.324219 -57.976562 50.023438 -56.386719 48.867188 -54.796875 C 47.710938 -53.203125 46.988281 -51.613281 45.976562 -49.878906 Z M 18.363281 -29.636719 C 22.84375 -37.15625 24.867188 -33.976562 22.410156 -25.878906 C 22.265625 -24.867188 22.265625 -23.855469 22.410156 -22.84375 L 22.121094 -19.953125 C 22.121094 -19.664062 21.976562 -19.375 21.976562 -19.085938 C 21.398438 -17.925781 20.675781 -16.914062 19.808594 -16.046875 C 18.507812 -14.601562 17.058594 -13.15625 15.902344 -11.710938 C 15.179688 -10.988281 14.457031 -10.121094 13.300781 -9.6875 C 13.15625 -9.832031 12.867188 -9.976562 12.867188 -10.265625 C 11.421875 -13.011719 11.710938 -15.757812 12.289062 -18.363281 L 14.3125 -22.410156 L 15.035156 -23.710938 C 16.191406 -25.878906 16.769531 -27.902344 18.363281 -29.636719 Z M 32.820312 6.074219 C 32.53125 6.074219 32.242188 6.21875 32.386719 6.21875 L 37.734375 10.265625 C 38.167969 10.554688 38.3125 10.84375 38.746094 11.277344 C 38.167969 11.277344 37.734375 11.277344 37.589844 11.132812 C 35.132812 10.410156 33.542969 8.964844 31.953125 7.085938 L 31.375 5.925781 C 31.375 5.925781 31.230469 5.78125 31.230469 5.636719 C 30.941406 5.492188 30.796875 5.347656 30.796875 5.203125 L 31.085938 5.058594 L 31.519531 5.492188 C 31.519531 5.636719 31.375 5.925781 31.519531 6.074219 Z M 44.242188 1.734375 C 43.808594 1.445312 43.375 1.300781 43.375 0.867188 C 42.21875 -0.433594 41.347656 -1.878906 40.191406 -3.324219 C 40.769531 -3.613281 40.769531 -3.324219 40.914062 -3.179688 C 41.925781 -2.167969 42.652344 -1.15625 43.085938 0 C 43.519531 0.433594 44.097656 0.867188 44.242188 1.15625 Z M 41.492188 -6.074219 C 41.203125 -6.074219 41.203125 -6.363281 41.203125 -6.507812 C 40.335938 -7.953125 39.46875 -9.542969 39.035156 -11.421875 C 40.046875 -10.554688 40.046875 -9.6875 40.480469 -8.820312 C 40.914062 -7.808594 41.203125 -7.085938 41.492188 -6.074219 Z M 45.398438 0.433594 C 45.832031 0.722656 45.6875 1.15625 45.832031 1.445312 C 45.542969 1.011719 45.398438 0.867188 44.820312 0.433594 C 45.253906 0.144531 45.398438 0.289062 45.398438 0.433594 Z M 39.035156 -1.734375 C 39.035156 -1.878906 39.035156 -1.878906 38.890625 -2.023438 L 39.035156 -2.167969 C 39.035156 -2.023438 39.324219 -1.878906 39.324219 -1.734375 Z M 41.78125 -5.636719 L 41.492188 -5.636719 C 41.636719 -5.78125 41.636719 -5.925781 41.492188 -6.074219 Z M 38.167969 -4.046875 C 38.023438 -4.046875 38.023438 -4.046875 37.734375 -4.191406 L 38.023438 -4.191406 Z M 36.578125 8.53125 L 36.433594 8.53125 C 36.433594 8.386719 36.578125 8.386719 36.578125 8.386719 Z M 38.457031 -3.179688 L 38.457031 -3.035156 L 38.3125 -3.035156 Z M 38.457031 -3.179688 "/></g></g></g><g fill="#38b6ff" fill-opacity="1"><g transform="translate(458.184642, 435.812446)"><g><path d="M 28.625 3.613281 C 28.335938 3.46875 28.191406 3.46875 28.046875 3.46875 L 28.335938 3.179688 C 28.914062 3.035156 29.347656 2.890625 29.925781 2.601562 C 31.230469 2.3125 32.675781 2.023438 33.832031 1.589844 C 34.410156 1.445312 34.988281 1.300781 35.566406 1.300781 C 37.011719 1.011719 38.3125 1.011719 39.613281 0.578125 C 42.363281 -0.722656 45.253906 -1.15625 47.855469 -2.167969 C 49.589844 -2.601562 51.179688 -3.179688 52.480469 -4.625 L 53.492188 -5.203125 L 53.636719 -5.347656 C 53.78125 -5.636719 53.636719 -5.78125 53.203125 -6.074219 C 54.507812 -6.507812 55.375 -6.796875 56.097656 -7.230469 L 56.675781 -7.230469 C 58.699219 -8.820312 60.867188 -10.121094 62.3125 -12.144531 C 62.601562 -12.433594 63.035156 -12.867188 63.179688 -13.15625 C 63.46875 -14.601562 64.335938 -15.902344 65.492188 -17.203125 C 65.925781 -18.507812 66.652344 -19.375 67.230469 -20.386719 C 67.664062 -21.253906 68.242188 -22.265625 68.53125 -23.132812 C 69.6875 -26.601562 68.820312 -29.347656 67.808594 -31.808594 C 66.796875 -33.976562 65.203125 -35.710938 64.046875 -37.734375 C 63.757812 -38.3125 63.613281 -39.179688 63.179688 -39.46875 C 62.601562 -39.757812 61.734375 -39.613281 60.867188 -39.902344 C 60.433594 -40.046875 60.144531 -40.480469 59.710938 -40.625 C 57.542969 -41.347656 55.230469 -41.78125 52.914062 -42.507812 C 52.046875 -42.941406 51.179688 -42.941406 50.167969 -43.230469 C 50.167969 -43.375 50.167969 -43.375 50.023438 -43.664062 C 50.457031 -43.808594 50.890625 -43.953125 51.179688 -44.242188 L 50.457031 -44.675781 L 50.601562 -44.820312 C 51.179688 -44.820312 52.046875 -45.253906 52.625 -45.253906 C 52.046875 -45.398438 51.46875 -45.253906 50.746094 -45.398438 C 50.890625 -45.542969 50.890625 -45.6875 50.890625 -45.832031 L 53.203125 -46.699219 C 53.78125 -46.988281 54.363281 -47.132812 54.941406 -47.277344 L 61.878906 -50.746094 C 63.179688 -51.46875 64.191406 -52.046875 65.203125 -52.769531 L 67.085938 -53.925781 C 68.964844 -55.085938 70.265625 -56.53125 71.421875 -58.265625 L 73.011719 -60.867188 C 74.601562 -62.890625 75.757812 -65.058594 76.046875 -67.085938 C 77.492188 -75.46875 75.179688 -80.675781 67.953125 -82.699219 C 65.347656 -83.277344 62.3125 -83.421875 59.277344 -83.421875 C 54.652344 -83.421875 50.3125 -83.566406 45.6875 -83.132812 C 37.878906 -82.121094 29.925781 -80.386719 22.121094 -80.097656 C 21.398438 -79.953125 20.675781 -79.519531 19.953125 -78.941406 C 19.375 -78.070312 18.363281 -77.058594 17.925781 -76.191406 C 15.324219 -71.421875 15.46875 -67.230469 16.046875 -63.613281 C 16.191406 -63.035156 16.480469 -62.457031 17.058594 -62.457031 C 18.074219 -62.3125 19.375 -62.023438 20.675781 -62.3125 C 25.734375 -62.023438 26.457031 -60.867188 25.300781 -57.253906 C 24 -52.480469 21.253906 -47.855469 19.230469 -43.085938 C 18.363281 -41.492188 18.21875 -41.347656 16.769531 -41.347656 C 15.035156 -41.203125 13.445312 -41.347656 11.566406 -41.203125 C 10.410156 -40.046875 9.832031 -38.457031 9.832031 -37.011719 C 9.398438 -35.710938 9.398438 -34.410156 9.542969 -33.253906 C 9.109375 -31.230469 9.6875 -29.78125 11.421875 -29.058594 L 12.433594 -28.335938 C 12.867188 -28.335938 13.011719 -28.046875 12.578125 -27.324219 C 12.144531 -25.589844 11.421875 -23.855469 10.699219 -21.976562 C 8.53125 -18.363281 8.097656 -9.976562 -0.289062 -11.421875 C -2.167969 -11.421875 -4.046875 -11.566406 -5.925781 -11.855469 C -6.941406 -12 -7.953125 -12 -9.109375 -11.421875 C -10.121094 -11.132812 -11.277344 -10.410156 -12 -9.109375 C -12.433594 -8.097656 -13.15625 -6.796875 -14.167969 -5.925781 C -15.46875 -4.191406 -15.902344 -2.601562 -16.335938 -1.15625 C -16.914062 0.722656 -17.636719 2.457031 -18.507812 4.335938 C -18.941406 5.78125 -19.519531 6.941406 -19.953125 8.242188 C -20.386719 9.832031 -19.519531 10.410156 -17.925781 9.976562 C -17.058594 9.976562 -16.191406 9.6875 -15.46875 9.6875 C -14.167969 9.6875 -12.433594 9.398438 -10.988281 8.964844 C -8.820312 8.675781 -6.941406 8.242188 -4.914062 8.097656 C -3.757812 8.097656 -2.746094 8.53125 -1.589844 8.675781 C -0.722656 8.53125 0 8.964844 -0.144531 9.6875 C -0.144531 10.699219 0.289062 11.132812 1.15625 11.277344 C 2.023438 11.132812 2.890625 11.421875 3.46875 11.421875 C 4.625 11.566406 6.363281 10.265625 7.085938 8.964844 C 7.085938 8.675781 7.230469 8.386719 7.085938 8.097656 C 7.664062 6.652344 7.664062 6.652344 9.253906 6.21875 C 10.554688 5.78125 11.855469 5.636719 13.300781 4.914062 C 15.613281 3.902344 17.347656 4.335938 19.519531 4.046875 C 20.964844 3.902344 22.410156 4.046875 24 3.324219 C 25.445312 2.890625 26.601562 2.890625 27.035156 3.757812 C 27.324219 4.046875 27.902344 4.191406 28.625 3.613281 Z M 23.277344 -11.710938 C 17.492188 -11.132812 13.589844 -9.398438 16.480469 -17.058594 C 19.664062 -23.132812 18.21875 -28.625 27.324219 -29.492188 C 28.914062 -29.925781 30.507812 -30.21875 31.953125 -30.507812 C 33.542969 -30.796875 34.699219 -31.085938 36.144531 -31.085938 C 38.167969 -31.375 40.046875 -31.375 41.925781 -31.664062 C 43.519531 -31.664062 44.964844 -31.519531 46.554688 -31.230469 C 48.289062 -30.941406 50.457031 -30.941406 52.480469 -31.085938 C 52.769531 -30.941406 53.203125 -31.085938 53.492188 -31.085938 C 54.21875 -30.941406 55.085938 -31.230469 55.230469 -30.941406 C 56.675781 -29.78125 58.265625 -28.769531 58.410156 -26.601562 C 58.410156 -26.457031 58.554688 -26.3125 58.554688 -26.167969 C 60 -25.011719 59.855469 -22.988281 60 -21.253906 C 60.289062 -19.808594 59.566406 -18.941406 57.6875 -18.21875 L 44.675781 -14.746094 C 41.492188 -13.734375 38.746094 -13.011719 35.855469 -12.867188 L 28.191406 -12.144531 C 26.457031 -11.855469 24.867188 -11.855469 23.277344 -11.710938 Z M 31.953125 -45.109375 C 21.253906 -38.601562 33.832031 -63.902344 39.324219 -64.914062 C 41.636719 -65.347656 44.097656 -65.636719 46.699219 -66.21875 C 47.132812 -66.363281 47.566406 -66.070312 48.144531 -66.070312 C 48.722656 -66.363281 49.878906 -66.796875 50.023438 -66.652344 C 50.3125 -65.925781 51.179688 -66.652344 51.613281 -66.363281 C 51.757812 -66.21875 52.046875 -66.21875 52.191406 -66.507812 C 54.21875 -67.375 55.808594 -67.375 56.820312 -66.652344 C 57.109375 -66.652344 57.398438 -66.796875 57.832031 -66.796875 C 60.722656 -67.375 63.179688 -67.519531 65.203125 -66.796875 C 66.652344 -66.652344 67.664062 -65.78125 68.675781 -65.203125 C 68.964844 -65.058594 68.964844 -64.769531 69.253906 -64.480469 C 70.84375 -63.613281 70.121094 -61.300781 67.808594 -59.855469 C 63.613281 -56.964844 59.277344 -54.941406 54.941406 -53.058594 C 47.277344 -50.167969 39.613281 -47.421875 31.953125 -45.109375 Z M 50.601562 -81.542969 L 50.601562 -81.6875 C 51.324219 -81.6875 51.902344 -81.6875 52.625 -81.976562 C 57.109375 -81.976562 61.734375 -82.121094 66.21875 -81.542969 C 66.941406 -81.542969 67.519531 -81.253906 67.808594 -80.675781 Z M 61.445312 -27.757812 C 62.457031 -26.746094 63.179688 -23.855469 62.457031 -21.976562 C 62.023438 -22.410156 61.589844 -22.554688 61.445312 -22.84375 C 61.011719 -24.578125 60.722656 -26.746094 61.445312 -27.757812 Z M 34.554688 -0.289062 C 33.542969 0.867188 32.820312 0.867188 31.664062 0.578125 C 32.820312 0 33.398438 -0.289062 34.554688 -0.289062 Z M 41.203125 -2.023438 C 41.78125 -2.167969 42.363281 -2.167969 42.941406 -2.457031 C 42.941406 -2.3125 42.941406 -2.167969 42.796875 -2.023438 C 42.21875 -1.734375 41.636719 -1.734375 41.058594 -1.589844 C 41.058594 -1.734375 41.058594 -1.878906 41.203125 -2.023438 Z M 38.890625 -0.144531 C 39.613281 -0.289062 40.335938 -0.578125 41.203125 -0.867188 C 40.046875 0.144531 40.046875 0.144531 38.890625 -0.144531 Z M 38.890625 -0.144531 "/></g></g></g><g fill="#38b6ff" fill-opacity="1"><g transform="translate(536.542969, 435.812446)"><g><path d="M 51.324219 -33.6875 C 49.445312 -31.808594 46.554688 -27.035156 44.675781 -25.15625 L 42.363281 -23.132812 L 39.179688 -21.253906 C 38.3125 -20.675781 37.300781 -20.242188 36.433594 -19.808594 C 35.421875 -19.375 34.410156 -19.230469 33.398438 -19.085938 C 32.820312 -19.085938 32.386719 -19.375 32.097656 -19.808594 C 31.519531 -20.964844 31.085938 -22.265625 30.796875 -23.421875 C 30.652344 -24.433594 30.796875 -25.445312 31.230469 -26.457031 L 33.253906 -30.507812 C 33.398438 -30.796875 33.542969 -30.941406 33.542969 -31.230469 C 33.398438 -32.675781 33.253906 -34.121094 32.242188 -35.421875 L 31.375 -36.289062 C 30.507812 -37.300781 29.492188 -37.445312 28.191406 -37.300781 L 25.15625 -32.386719 C 24.433594 -31.230469 23.566406 -30.21875 22.699219 -29.203125 L 21.542969 -27.902344 C 20.964844 -26.890625 20.242188 -26.167969 19.375 -25.445312 C 17.636719 -24.144531 16.046875 -22.699219 14.601562 -21.253906 L 14.023438 -20.820312 C 14.023438 -21.109375 13.878906 -21.253906 14.023438 -21.398438 C 14.3125 -22.988281 14.890625 -24.578125 15.757812 -26.167969 C 15.902344 -26.457031 16.046875 -26.746094 16.335938 -27.035156 L 17.78125 -29.058594 C 18.941406 -30.652344 19.953125 -32.242188 21.253906 -33.6875 L 22.988281 -35.566406 C 24.289062 -37.445312 26.167969 -38.890625 27.757812 -40.480469 L 27.757812 -40.625 C 28.914062 -41.492188 30.074219 -42.363281 31.375 -42.941406 C 32.675781 -43.664062 32.964844 -44.53125 32.675781 -45.832031 L 32.242188 -46.988281 C 31.664062 -48 30.652344 -48.722656 29.78125 -49.589844 C 29.636719 -49.734375 29.347656 -49.878906 29.058594 -49.878906 C 28.335938 -49.878906 27.757812 -50.601562 27.035156 -50.601562 C 27.035156 -50.601562 26.890625 -50.601562 26.746094 -50.746094 C 26.457031 -51.324219 25.878906 -51.324219 25.15625 -51.46875 C 24.867188 -51.46875 24.578125 -51.613281 24.289062 -51.757812 C 23.277344 -52.046875 22.121094 -52.046875 21.253906 -52.480469 L 20.820312 -52.480469 C 19.808594 -52.480469 18.941406 -52.335938 18.074219 -52.191406 C 17.636719 -52.191406 17.058594 -52.046875 16.769531 -51.902344 C 14.601562 -50.601562 12.867188 -49.15625 11.277344 -47.421875 C 9.109375 -44.820312 6.796875 -42.070312 4.914062 -39.179688 C 4.769531 -39.035156 4.625 -38.890625 4.625 -38.746094 C 3.179688 -37.15625 2.167969 -35.277344 1.15625 -33.398438 C 0.144531 -31.375 -0.289062 -29.203125 0 -26.890625 C 0.433594 -22.410156 2.746094 -19.230469 6.941406 -17.492188 C 7.664062 -17.203125 8.386719 -16.914062 9.109375 -16.480469 C 10.988281 -15.46875 13.011719 -15.46875 15.035156 -16.046875 C 16.191406 -16.480469 17.347656 -16.625 18.21875 -17.78125 C 18.21875 -17.78125 18.363281 -17.925781 18.507812 -17.925781 L 20.097656 -18.941406 C 20.964844 -19.664062 21.976562 -20.242188 23.132812 -20.820312 C 24 -19.664062 25.300781 -18.941406 26.601562 -18.363281 L 27.324219 -17.925781 C 28.769531 -16.769531 30.507812 -16.480469 32.242188 -15.902344 L 33.542969 -15.902344 C 34.699219 -16.191406 35.855469 -16.191406 36.867188 -16.625 C 38.023438 -17.058594 39.179688 -17.058594 40.480469 -17.347656 C 41.492188 -17.636719 42.363281 -18.074219 43.230469 -18.796875 C 44.097656 -19.664062 45.253906 -20.53125 46.121094 -21.542969 C 46.265625 -21.832031 46.554688 -21.976562 46.84375 -22.121094 C 47.566406 -22.554688 48.144531 -22.988281 48.578125 -23.855469 C 48.722656 -24.289062 49.15625 -24.578125 49.445312 -24.867188 L 51.035156 -26.746094 C 51.324219 -26.890625 51.46875 -27.324219 51.902344 -27.46875 C 52.625 -28.046875 54.070312 -31.519531 54.21875 -32.53125 C 53.492188 -33.253906 52.769531 -33.832031 51.757812 -33.976562 Z M 51.324219 -33.6875 "/></g></g></g><g fill="#38b6ff" fill-opacity="1"><g transform="translate(585.986753, 435.812446)"><g><path d="M 51.035156 -34.699219 C 50.3125 -34.265625 50.746094 -36.867188 50.3125 -36.289062 C 49.589844 -35.277344 47.277344 -33.976562 46.554688 -32.964844 C 45.253906 -31.085938 41.203125 -28.191406 39.902344 -26.457031 L 37.734375 -23.855469 C 35.855469 -21.6875 31.808594 -18.796875 29.636719 -16.914062 C 26.890625 -14.457031 20.097656 -11.566406 16.914062 -11.132812 C 15.902344 -10.988281 12.289062 -9.542969 11.566406 -10.410156 C 11.132812 -10.988281 10.699219 -11.566406 10.410156 -12.144531 L 9.109375 -15.035156 C 8.675781 -16.046875 8.53125 -17.058594 8.675781 -18.074219 C 8.820312 -18.941406 8.820312 -19.664062 9.109375 -20.386719 C 9.832031 -22.84375 10.554688 -25.300781 11.710938 -27.46875 L 15.179688 -34.699219 C 16.046875 -36.578125 17.058594 -38.3125 18.21875 -39.902344 C 19.375 -41.492188 20.820312 -42.941406 21.6875 -44.820312 L 22.265625 -45.253906 C 22.121094 -44.820312 22.121094 -44.53125 22.121094 -44.386719 C 20.964844 -41.636719 20.242188 -38.890625 19.375 -36 L 18.941406 -33.976562 C 18.796875 -33.253906 19.085938 -32.820312 19.519531 -32.53125 L 19.953125 -32.242188 C 20.820312 -31.808594 21.832031 -31.375 22.554688 -30.652344 C 22.699219 -30.507812 22.988281 -30.363281 23.421875 -30.363281 C 23.710938 -30.363281 24 -30.507812 24.289062 -30.507812 C 25.15625 -30.652344 25.734375 -31.230469 26.167969 -32.242188 C 27.179688 -34.554688 28.046875 -37.011719 28.625 -39.613281 C 28.769531 -40.335938 28.769531 -41.058594 28.769531 -41.78125 C 28.769531 -43.085938 28.625 -44.53125 28.335938 -45.832031 C 28.046875 -46.699219 27.902344 -47.566406 27.757812 -48.433594 L 28.625 -49.734375 C 28.480469 -49.878906 28.625 -50.167969 28.480469 -50.3125 C 28.191406 -50.890625 28.046875 -51.46875 28.335938 -52.191406 C 28.480469 -52.914062 28.191406 -53.347656 27.757812 -53.78125 C 27.324219 -54.070312 27.035156 -53.925781 26.601562 -53.636719 C 26.457031 -53.492188 26.3125 -53.492188 26.167969 -53.492188 C 26.023438 -53.492188 25.878906 -53.636719 25.734375 -53.636719 C 24.289062 -54.652344 22.699219 -55.230469 20.964844 -55.085938 C 20.964844 -54.941406 20.964844 -54.941406 20.820312 -55.085938 C 19.808594 -55.230469 18.652344 -54.941406 17.492188 -54.363281 C 17.058594 -54.21875 16.625 -54.070312 16.191406 -54.070312 C 15.179688 -54.070312 14.167969 -53.78125 13.15625 -53.058594 C 11.277344 -51.757812 9.6875 -50.167969 7.953125 -48.722656 C 6.507812 -47.566406 5.347656 -45.976562 4.191406 -44.242188 L 3.035156 -42.507812 C 1.589844 -39.757812 -0.144531 -37.15625 -1.15625 -33.976562 L -2.3125 -30.941406 C -2.746094 -29.492188 -3.035156 -28.046875 -3.179688 -26.601562 C -3.46875 -24.144531 -3.46875 -21.6875 -3.179688 -19.230469 C -2.746094 -15.035156 -1.300781 -12 1.445312 -9.832031 C 3.179688 -8.53125 5.058594 -7.519531 7.085938 -6.652344 C 8.964844 -5.925781 13.300781 -4.046875 15.324219 -4.480469 C 16.625 -4.914062 21.398438 -4.335938 22.699219 -4.480469 C 23.855469 -4.480469 29.058594 -7.230469 30.074219 -7.808594 C 31.808594 -8.820312 33.398438 -9.976562 34.988281 -11.421875 L 39.613281 -16.335938 C 40.625 -17.492188 41.492188 -18.941406 42.507812 -20.386719 C 42.652344 -20.386719 42.652344 -20.675781 42.652344 -20.820312 C 43.375 -22.410156 44.242188 -23.855469 45.253906 -25.300781 L 47.855469 -28.914062 C 48.722656 -29.925781 50.746094 -33.398438 51.035156 -34.699219 Z M 51.035156 -34.699219 "/></g></g></g><g fill="#38b6ff" fill-opacity="1"><g transform="translate(631.382512, 435.812446)"><g><path d="M 28.335938 -12.289062 C 28.769531 -12.433594 28.769531 -13.011719 29.203125 -13.011719 C 29.78125 -13.300781 30.507812 -13.589844 31.085938 -13.734375 C 32.242188 -14.167969 33.398438 -15.035156 34.410156 -16.335938 C 35.132812 -16.914062 35.710938 -17.78125 36.578125 -18.507812 C 37.878906 -20.242188 38.601562 -21.832031 39.324219 -23.710938 L 39.613281 -25.15625 C 40.769531 -28.769531 41.203125 -32.242188 41.203125 -35.710938 C 41.203125 -37.734375 40.769531 -39.46875 39.613281 -41.058594 C 39.324219 -41.492188 39.179688 -41.636719 39.035156 -42.070312 C 38.601562 -42.941406 38.023438 -43.375 37.300781 -43.375 C 33.976562 -43.953125 31.085938 -43.085938 27.902344 -40.625 C 24.867188 -37.734375 22.121094 -34.265625 19.664062 -30.796875 C 17.203125 -27.46875 15.613281 -23.566406 13.445312 -20.242188 C 12.433594 -18.652344 11.132812 -18.507812 11.710938 -23.132812 C 12.289062 -24.722656 12.578125 -26.746094 13.011719 -28.625 C 13.15625 -29.347656 13.445312 -29.925781 13.589844 -30.796875 C 14.601562 -34.410156 16.046875 -38.023438 17.636719 -41.492188 C 18.796875 -44.386719 20.242188 -47.277344 21.398438 -50.023438 L 22.988281 -53.058594 C 24 -55.375 25.15625 -57.398438 26.167969 -59.421875 C 27.179688 -61.011719 27.757812 -62.457031 28.335938 -63.902344 C 28.480469 -64.191406 28.769531 -64.625 28.769531 -64.914062 C 30.21875 -66.941406 31.808594 -68.964844 33.253906 -71.277344 C 33.542969 -71.710938 33.976562 -72.144531 34.121094 -72.722656 C 35.566406 -74.023438 36.867188 -75.613281 38.167969 -76.769531 C 39.757812 -78.363281 40.914062 -78.507812 42.363281 -77.347656 C 42.652344 -76.914062 43.230469 -76.625 43.519531 -76.191406 C 43.808594 -76.046875 44.242188 -75.902344 44.53125 -75.613281 C 44.964844 -75.613281 45.832031 -76.191406 45.976562 -76.914062 L 45.976562 -78.21875 C 45.976562 -79.953125 45.398438 -81.832031 44.53125 -82.988281 C 42.507812 -86.167969 40.335938 -88.480469 37.878906 -90.363281 C 36.433594 -91.519531 34.699219 -92.53125 33.976562 -94.121094 C 33.6875 -94.265625 33.398438 -94.699219 33.253906 -94.699219 C 31.953125 -94.554688 30.652344 -94.554688 29.636719 -93.6875 C 28.480469 -92.820312 27.46875 -91.808594 26.457031 -90.941406 C 24 -88.625 21.976562 -85.734375 19.808594 -82.699219 C 16.914062 -77.925781 13.734375 -72.722656 11.277344 -67.375 C 10.265625 -65.78125 9.6875 -63.902344 8.675781 -62.167969 C 6.941406 -58.121094 5.203125 -54.070312 3.902344 -50.023438 C 3.035156 -47.855469 2.3125 -45.398438 1.589844 -43.085938 C 0.578125 -39.179688 -0.578125 -35.277344 -0.722656 -31.230469 C -0.722656 -29.925781 -1.011719 -28.769531 -1.15625 -27.46875 C -1.300781 -24.578125 -1.589844 -21.6875 -1.300781 -18.796875 C -1.15625 -16.480469 -0.722656 -14.167969 -1.15625 -12 C -1.15625 -11.566406 -1.15625 -11.421875 -1.011719 -11.132812 C -0.433594 -7.953125 0.578125 -4.914062 3.324219 -3.179688 C 5.492188 -1.300781 6.652344 -1.300781 9.6875 -2.601562 C 10.410156 -3.324219 11.277344 -3.324219 11.855469 -3.324219 C 12.578125 -3.179688 13.011719 -3.46875 13.589844 -4.046875 C 14.023438 -4.769531 14.601562 -5.78125 14.890625 -6.796875 C 15.324219 -7.664062 15.757812 -8.53125 16.335938 -9.398438 C 16.625 -9.832031 16.625 -10.699219 16.914062 -11.132812 C 18.21875 -13.011719 18.652344 -11.710938 19.953125 -10.121094 C 21.398438 -6.941406 23.421875 -3.902344 25.011719 -1.15625 L 27.324219 1.734375 C 28.914062 3.324219 31.230469 4.191406 33.542969 4.046875 C 34.988281 4.046875 36.578125 3.613281 38.023438 3.324219 C 40.191406 2.746094 45.832031 -1.878906 48 -3.035156 C 48.722656 -3.324219 49.445312 -3.613281 50.457031 -4.480469 C 51.613281 -5.492188 58.410156 -13.011719 59.421875 -14.167969 C 60.289062 -16.046875 61.589844 -17.925781 62.457031 -19.664062 L 62.457031 -19.953125 C 63.613281 -21.832031 64.191406 -23.710938 64.914062 -25.734375 C 65.347656 -26.746094 67.519531 -29.636719 67.664062 -31.085938 C 67.664062 -31.519531 67.808594 -32.242188 68.097656 -32.964844 C 68.675781 -34.410156 66.796875 -32.820312 66.070312 -34.84375 L 65.636719 -33.109375 L 64.769531 -31.230469 C 63.324219 -28.914062 62.167969 -26.3125 60.722656 -24 C 58.84375 -20.964844 57.109375 -17.925781 54.796875 -15.46875 C 54.070312 -15.035156 48.144531 -8.675781 47.566406 -8.386719 C 45.976562 -7.664062 40.769531 -3.46875 39.324219 -3.035156 C 37.878906 -2.457031 36.433594 -2.167969 34.699219 -2.601562 C 33.6875 -2.601562 32.820312 -3.179688 32.242188 -4.335938 C 31.375 -5.492188 30.507812 -6.941406 29.78125 -8.386719 C 29.203125 -9.398438 28.480469 -10.554688 28.335938 -12.289062 Z M 29.492188 -36.578125 C 33.109375 -41.203125 35.855469 -41.925781 33.542969 -34.410156 C 31.664062 -29.925781 29.203125 -25.878906 25.734375 -23.277344 C 24.867188 -22.410156 20.386719 -20.964844 21.976562 -23.277344 C 22.410156 -24.578125 23.277344 -25.589844 23.855469 -27.035156 C 24.578125 -28.046875 25.011719 -29.347656 25.589844 -30.796875 C 26.457031 -32.820312 27.902344 -34.84375 29.492188 -36.578125 Z M -0.722656 -21.832031 C -0.433594 -20.675781 -0.433594 -20.53125 -0.722656 -18.796875 Z M -0.722656 -21.832031 "/></g></g></g></svg>